<mxfile host="app.diagrams.net" modified="2020-07-04T12:00:19.870Z" agent="5.0 (Windows NT 10.0; Win64; x64) AppleWebKit/537.36 (KHTML, like Gecko) Chrome/83.0.4103.116 Safari/537.36 Edg/83.0.478.58" etag="g41dV6iQZRuop9yPPcSG" version="13.3.8" type="github" pages="2">
  <diagram id="9LM2HgzO2beTKXGPVgXP" name="Factory">
    <mxGraphModel dx="830" dy="429" grid="0" gridSize="10" guides="1" tooltips="1" connect="1" arrows="1" fold="1" page="0" pageScale="1" pageWidth="827" pageHeight="1169" math="0" shadow="0">
      <root>
        <mxCell id="0" />
        <mxCell id="1" parent="0" />
        <mxCell id="YhDlRsUXTMIksN5AuTmG-6" value="&lt;p style=&quot;margin: 0px ; margin-top: 4px ; text-align: center&quot;&gt;&lt;i&gt;&amp;lt;&amp;lt;Interface&amp;gt;&amp;gt;&lt;/i&gt;&lt;br&gt;&lt;b&gt;NumberFactory&lt;/b&gt;&lt;/p&gt;&lt;hr size=&quot;1&quot;&gt;&lt;p style=&quot;margin: 0px ; margin-left: 4px&quot;&gt;&lt;u&gt;~ impl: NumberFactory&lt;/u&gt;&lt;br&gt;&lt;/p&gt;&lt;hr size=&quot;1&quot;&gt;&lt;p style=&quot;margin: 0px ; margin-left: 4px&quot;&gt;&lt;u&gt;~ getFactory(): NumberFactory&lt;/u&gt;&lt;br&gt;~ &lt;i&gt;parse(String): Number&lt;/i&gt;&lt;/p&gt;" style="verticalAlign=top;align=left;overflow=fill;fontSize=12;fontFamily=Helvetica;html=1;" parent="1" vertex="1">
          <mxGeometry x="177" y="214" width="190" height="120" as="geometry" />
        </mxCell>
        <mxCell id="YhDlRsUXTMIksN5AuTmG-7" value="&lt;div style=&quot;text-align: left&quot;&gt;&lt;span&gt;+ public&lt;/span&gt;&lt;/div&gt;&lt;div style=&quot;text-align: left&quot;&gt;&lt;span&gt;~ package&lt;/span&gt;&lt;/div&gt;&lt;div style=&quot;text-align: left&quot;&gt;&lt;span&gt;# protected&lt;/span&gt;&lt;/div&gt;&lt;div style=&quot;text-align: left&quot;&gt;&lt;span&gt;- private&lt;/span&gt;&lt;/div&gt;&lt;div style=&quot;text-align: left&quot;&gt;&lt;span&gt;underline static&lt;/span&gt;&lt;/div&gt;&lt;div style=&quot;text-align: left&quot;&gt;&lt;span&gt;italic abstract&lt;/span&gt;&lt;/div&gt;" style="text;html=1;strokeColor=none;fillColor=none;align=center;verticalAlign=middle;whiteSpace=wrap;rounded=0;" parent="1" vertex="1">
          <mxGeometry x="440" y="350" width="92" height="20" as="geometry" />
        </mxCell>
        <mxCell id="YhDlRsUXTMIksN5AuTmG-12" value="implements" style="edgeStyle=orthogonalEdgeStyle;rounded=0;orthogonalLoop=1;jettySize=auto;html=1;exitX=0.5;exitY=0;exitDx=0;exitDy=0;dashed=1;endArrow=block;endFill=0;" parent="1" source="YhDlRsUXTMIksN5AuTmG-8" target="YhDlRsUXTMIksN5AuTmG-6" edge="1">
          <mxGeometry relative="1" as="geometry" />
        </mxCell>
        <mxCell id="YhDlRsUXTMIksN5AuTmG-8" value="NumberFactoryImpl" style="swimlane;fontStyle=1;align=center;verticalAlign=top;childLayout=stackLayout;horizontal=1;startSize=26;horizontalStack=0;resizeParent=1;resizeParentMax=0;resizeLast=0;collapsible=1;marginBottom=0;" parent="1" vertex="1">
          <mxGeometry x="192" y="387" width="160" height="52" as="geometry">
            <mxRectangle x="192" y="387" width="140" height="26" as="alternateBounds" />
          </mxGeometry>
        </mxCell>
        <mxCell id="YhDlRsUXTMIksN5AuTmG-11" value="+ parse(String): Number" style="text;strokeColor=none;fillColor=none;align=left;verticalAlign=top;spacingLeft=4;spacingRight=4;overflow=hidden;rotatable=0;points=[[0,0.5],[1,0.5]];portConstraint=eastwest;" parent="YhDlRsUXTMIksN5AuTmG-8" vertex="1">
          <mxGeometry y="26" width="160" height="26" as="geometry" />
        </mxCell>
        <mxCell id="YhDlRsUXTMIksN5AuTmG-13" value="Factory Method" style="text;align=center;fontStyle=1;verticalAlign=middle;spacingLeft=3;spacingRight=3;strokeColor=none;rotatable=0;points=[[0,0.5],[1,0.5]];portConstraint=eastwest;" parent="1" vertex="1">
          <mxGeometry x="229" y="180" width="80" height="26" as="geometry" />
        </mxCell>
        <mxCell id="YhDlRsUXTMIksN5AuTmG-14" value="Static Factory Method" style="text;align=center;fontStyle=1;verticalAlign=middle;spacingLeft=3;spacingRight=3;strokeColor=none;rotatable=0;points=[[0,0.5],[1,0.5]];portConstraint=eastwest;" parent="1" vertex="1">
          <mxGeometry x="456" y="180" width="80" height="26" as="geometry" />
        </mxCell>
        <mxCell id="YhDlRsUXTMIksN5AuTmG-15" value="NumberFactory" style="swimlane;fontStyle=1;align=center;verticalAlign=top;childLayout=stackLayout;horizontal=1;startSize=26;horizontalStack=0;resizeParent=1;resizeParentMax=0;resizeLast=0;collapsible=1;marginBottom=0;" parent="1" vertex="1">
          <mxGeometry x="414" y="214" width="160" height="52" as="geometry" />
        </mxCell>
        <mxCell id="YhDlRsUXTMIksN5AuTmG-18" value="+ parse(String): Number" style="text;strokeColor=none;fillColor=none;align=left;verticalAlign=top;spacingLeft=4;spacingRight=4;overflow=hidden;rotatable=0;points=[[0,0.5],[1,0.5]];portConstraint=eastwest;fontStyle=4" parent="YhDlRsUXTMIksN5AuTmG-15" vertex="1">
          <mxGeometry y="26" width="160" height="26" as="geometry" />
        </mxCell>
      </root>
    </mxGraphModel>
  </diagram>
  <diagram id="RcpOFR39_kiWJvtpJfOf" name="Bridge">
    <mxGraphModel dx="830" dy="429" grid="0" gridSize="10" guides="1" tooltips="1" connect="1" arrows="1" fold="1" page="0" pageScale="1" pageWidth="827" pageHeight="1169" math="0" shadow="0">
      <root>
        <mxCell id="Oiw7guekTPjz52R53B2g-0" />
        <mxCell id="Oiw7guekTPjz52R53B2g-1" parent="Oiw7guekTPjz52R53B2g-0" />
        <mxCell id="4gIP6GTXk0rofkSTQ-UT-0" value="&lt;p style=&quot;margin: 0px ; margin-top: 4px ; text-align: center&quot;&gt;&lt;b&gt;&lt;i&gt;Car&lt;/i&gt;&lt;/b&gt;&lt;/p&gt;&lt;hr size=&quot;1&quot;&gt;&lt;p style=&quot;margin: 0px ; margin-left: 4px&quot;&gt;# engine: Engine&lt;/p&gt;&lt;hr size=&quot;1&quot;&gt;&lt;p style=&quot;margin: 0px ; margin-left: 4px&quot;&gt;+ Car(Engine)&lt;/p&gt;&lt;p style=&quot;margin: 0px ; margin-left: 4px&quot;&gt;&lt;i&gt;+ drive(): void&lt;/i&gt;&lt;/p&gt;&lt;p style=&quot;margin: 0px ; margin-left: 4px&quot;&gt;&lt;br&gt;&lt;/p&gt;" style="verticalAlign=top;align=left;overflow=fill;fontSize=12;fontFamily=Helvetica;html=1;" vertex="1" parent="Oiw7guekTPjz52R53B2g-1">
          <mxGeometry x="109" y="98" width="160" height="90" as="geometry" />
        </mxCell>
        <mxCell id="E5Hw0MvrSw-Rs5jR8ZT9-1" value="extends" style="edgeStyle=orthogonalEdgeStyle;rounded=0;orthogonalLoop=1;jettySize=auto;html=1;exitX=0.5;exitY=0;exitDx=0;exitDy=0;entryX=0.5;entryY=1;entryDx=0;entryDy=0;dashed=1;endArrow=open;endFill=0;" edge="1" parent="Oiw7guekTPjz52R53B2g-1" source="E5Hw0MvrSw-Rs5jR8ZT9-0" target="4gIP6GTXk0rofkSTQ-UT-0">
          <mxGeometry relative="1" as="geometry" />
        </mxCell>
        <mxCell id="ENjM2dKt9BAPMcBnQNb5-2" style="edgeStyle=orthogonalEdgeStyle;rounded=0;orthogonalLoop=1;jettySize=auto;html=1;entryX=0;entryY=0.25;entryDx=0;entryDy=0;endArrow=none;endFill=0;exitX=1;exitY=0.25;exitDx=0;exitDy=0;" edge="1" parent="Oiw7guekTPjz52R53B2g-1" source="E5Hw0MvrSw-Rs5jR8ZT9-0" target="E5Hw0MvrSw-Rs5jR8ZT9-4">
          <mxGeometry relative="1" as="geometry">
            <mxPoint x="272" y="271" as="sourcePoint" />
          </mxGeometry>
        </mxCell>
        <mxCell id="E5Hw0MvrSw-Rs5jR8ZT9-0" value="&lt;p style=&quot;margin: 0px ; margin-top: 4px ; text-align: center&quot;&gt;&lt;b&gt;&lt;i&gt;RefinedCar&lt;/i&gt;&lt;/b&gt;&lt;/p&gt;&lt;hr size=&quot;1&quot;&gt;&lt;p style=&quot;margin: 0px ; margin-left: 4px&quot;&gt;+ RefinedCar(Engine)&lt;/p&gt;&lt;p style=&quot;margin: 0px ; margin-left: 4px&quot;&gt;+ drive(): void&lt;/p&gt;&lt;p style=&quot;margin: 0px ; margin-left: 4px&quot;&gt;&lt;i&gt;+ getBrand(): String&lt;/i&gt;&lt;/p&gt;" style="verticalAlign=top;align=left;overflow=fill;fontSize=12;fontFamily=Helvetica;html=1;" vertex="1" parent="Oiw7guekTPjz52R53B2g-1">
          <mxGeometry x="109" y="240" width="160" height="77" as="geometry" />
        </mxCell>
        <mxCell id="E5Hw0MvrSw-Rs5jR8ZT9-3" value="extends" style="edgeStyle=orthogonalEdgeStyle;rounded=0;orthogonalLoop=1;jettySize=auto;html=1;exitX=0.5;exitY=0;exitDx=0;exitDy=0;entryX=0.5;entryY=1;entryDx=0;entryDy=0;dashed=1;endArrow=open;endFill=0;" edge="1" parent="Oiw7guekTPjz52R53B2g-1" source="E5Hw0MvrSw-Rs5jR8ZT9-2" target="E5Hw0MvrSw-Rs5jR8ZT9-0">
          <mxGeometry relative="1" as="geometry" />
        </mxCell>
        <mxCell id="E5Hw0MvrSw-Rs5jR8ZT9-2" value="&lt;p style=&quot;margin: 0px ; margin-top: 4px ; text-align: center&quot;&gt;&lt;b&gt;BossCar&lt;/b&gt;&lt;/p&gt;&lt;hr size=&quot;1&quot;&gt;&lt;p style=&quot;margin: 0px ; margin-left: 4px&quot;&gt;+ BossCar(Engine)&lt;/p&gt;&lt;p style=&quot;margin: 0px ; margin-left: 4px&quot;&gt;+ getBrand(): String&lt;/p&gt;" style="verticalAlign=top;align=left;overflow=fill;fontSize=12;fontFamily=Helvetica;html=1;" vertex="1" parent="Oiw7guekTPjz52R53B2g-1">
          <mxGeometry x="109" y="358" width="160" height="67" as="geometry" />
        </mxCell>
        <mxCell id="E5Hw0MvrSw-Rs5jR8ZT9-4" value="&lt;p style=&quot;margin: 0px ; margin-top: 4px ; text-align: center&quot;&gt;&lt;i&gt;&amp;lt;&amp;lt;Interface&amp;gt;&amp;gt;&lt;/i&gt;&lt;br&gt;&lt;b&gt;Engine&lt;/b&gt;&lt;/p&gt;&lt;hr size=&quot;1&quot;&gt;&lt;p style=&quot;margin: 0px ; margin-left: 4px&quot;&gt;+ start(): void&lt;br&gt;&lt;br&gt;&lt;/p&gt;" style="verticalAlign=top;align=left;overflow=fill;fontSize=12;fontFamily=Helvetica;html=1;" vertex="1" parent="Oiw7guekTPjz52R53B2g-1">
          <mxGeometry x="356" y="242" width="133" height="67" as="geometry" />
        </mxCell>
        <mxCell id="ENjM2dKt9BAPMcBnQNb5-0" value="implements" style="edgeStyle=orthogonalEdgeStyle;rounded=0;orthogonalLoop=1;jettySize=auto;html=1;exitX=0.5;exitY=0;exitDx=0;exitDy=0;entryX=0.5;entryY=1;entryDx=0;entryDy=0;dashed=1;endArrow=block;endFill=0;" edge="1" parent="Oiw7guekTPjz52R53B2g-1" source="E5Hw0MvrSw-Rs5jR8ZT9-5" target="E5Hw0MvrSw-Rs5jR8ZT9-4">
          <mxGeometry relative="1" as="geometry" />
        </mxCell>
        <mxCell id="E5Hw0MvrSw-Rs5jR8ZT9-5" value="&lt;p style=&quot;margin: 0px ; margin-top: 4px ; text-align: center&quot;&gt;&lt;b&gt;HybridEngine&lt;/b&gt;&lt;/p&gt;&lt;hr size=&quot;1&quot;&gt;&lt;p style=&quot;margin: 0px ; margin-left: 4px&quot;&gt;+ start(): void&lt;/p&gt;" style="verticalAlign=top;align=left;overflow=fill;fontSize=12;fontFamily=Helvetica;html=1;" vertex="1" parent="Oiw7guekTPjz52R53B2g-1">
          <mxGeometry x="356" y="358" width="134" height="54" as="geometry" />
        </mxCell>
        <mxCell id="ENjM2dKt9BAPMcBnQNb5-3" value="……" style="text;html=1;strokeColor=none;fillColor=none;align=center;verticalAlign=middle;whiteSpace=wrap;rounded=0;" vertex="1" parent="Oiw7guekTPjz52R53B2g-1">
          <mxGeometry x="269" y="393" width="40" height="20" as="geometry" />
        </mxCell>
        <mxCell id="ENjM2dKt9BAPMcBnQNb5-4" value="……" style="text;html=1;strokeColor=none;fillColor=none;align=center;verticalAlign=middle;whiteSpace=wrap;rounded=0;" vertex="1" parent="Oiw7guekTPjz52R53B2g-1">
          <mxGeometry x="499" y="373" width="40" height="20" as="geometry" />
        </mxCell>
      </root>
    </mxGraphModel>
  </diagram>
</mxfile>
